<svg xmlns="http://www.w3.org/2000/svg" viewBox="0 0 24 24" width="48" height="48" fill="#8a70d6">
  <path d="M19 16.94V8.5c0-.55-.45-1-1-1h-5c-.55 0-1 .45-1 1v8.44c0 .31.18.58.45.73l4.2 2.1c.24.12.52.12.76 0l4.2-2.1c.27-.15.45-.42.45-.73z"/>
  <path d="M12 2C6.48 2 2 6.48 2 12s4.48 10 10 10 10-4.48 10-10S17.52 2 12 2zm0 18c-4.42 0-8-3.58-8-8s3.58-8 8-8 8 3.58 8 8-3.58 8-8 8z"/>
  <path d="M7.88 3.39L6.6 1.86 5 3.17l1.3 1.56c.47-.35.97-.66 1.58-.93z"/>
  <path d="M5.08 7.05L3.14 6.26l-.84 2.11 1.97.78c.17-.72.44-1.42.81-2.1z"/>
  <path d="M4 12c0-.2.01-.4.02-.6l-2.09-.15-.07 2.25 2.1-.18c-.01-.44.01-.88.04-1.32z"/>
  <path d="M5.05 16.87l-1.98.8.86 2.12 1.94-.77c-.36-.68-.63-1.4-.82-2.15z"/>
  <path d="M7.88 20.6l-1.29 1.53 1.6 1.34 1.31-1.57c-.62-.27-1.12-.57-1.62-.93z"/>
</svg> 