<svg xmlns="http://www.w3.org/2000/svg" viewBox="0 0 24 24" width="48" height="48" fill="#ffffff">
  <path d="M21.71 8.71c-.39-.39-1.02-.39-1.41 0L14.5 14.5l-2.79-2.79c-.39-.39-1.02-.39-1.41 0-.39.39-.39 1.02 0 1.41l3.5 3.5c.39.39 1.02.39 1.41 0l6.5-6.5c.39-.39.39-1.02 0-1.41z"/>
  <path d="M11.5 14.5l-2.79-2.79c-.39-.39-1.02-.39-1.41 0-.39.39-.39 1.02 0 1.41l3.5 3.5c.39.39 1.02.39 1.41 0l.7-.7-1.41-1.42z"/>
  <path d="M8.71 8.71L7.3 7.3c-.39-.39-1.02-.39-1.41 0L2.29 10.9c-.39.39-.39 1.02 0 1.41l4.59 4.59c.39.39 1.02.39 1.41 0 .39-.39.39-1.02 0-1.41L4.41 11.6l2.3-2.3 2 2c.39.39 1.02.39 1.41 0 .39-.39.39-1.02 0-1.41l-1.41-1.18z"/>
</svg> 